<?xml version="1.0" encoding="UTF-8"?>
<!DOCTYPE svg PUBLIC "-//W3C//DTD SVG 1.1//EN" "http://www.w3.org/Graphics/SVG/1.1/DTD/svg11.dtd">
<!-- Creator: CorelDRAW -->
<svg xmlns="http://www.w3.org/2000/svg" xml:space="preserve" width="42.3332mm" height="76.1998mm" version="1.1" style="shape-rendering:geometricPrecision; text-rendering:geometricPrecision; image-rendering:optimizeQuality; fill-rule:evenodd; clip-rule:evenodd"
viewBox="0 0 4233.32 7619.98"
 xmlns:xlink="http://www.w3.org/1999/xlink"
 xmlns:xodm="http://www.corel.com/coreldraw/odm/2003">
 <defs>
  <style type="text/css">
   <![CDATA[
    .fil0 {fill:black;fill-rule:nonzero}
   ]]>
  </style>
 </defs>
 <g id="Capa_x0020_1">
  <metadata id="CorelCorpID_0Corel-Layer"/>
  <path class="fil0" d="M2748.86 5266.61l-31.48 -165.27c-0.77,-4.59 -0.72,-9.12 -1.68,-13.76l-197.21 -936.05c125.49,6.69 476.63,67.88 567.63,538.13 0,0 78.15,353.77 -337.26,576.95zm-1224.32 -148.95c-186.52,-158.27 -322.31,-386.1 -334.03,-630.46 -13.46,-280.68 133.42,-544.93 309.44,-763.97 178.84,-222.57 392.6,-417.05 631.04,-574.15 40.96,177.14 81.88,354.31 122.78,531.44 8.64,37.31 16.97,77.88 0.96,112.68 -17.46,37.91 -58.41,57.84 -95.07,77.81 -269.25,146.63 -434.27,441.15 -439.75,745.1 -2.08,114.7 15.16,233.5 76.27,330.61 61.07,97.09 172.95,167.86 287.01,155.58 -49,5.28 -127.47,-206.49 -138.35,-242.55 -30.37,-100.58 -36.59,-208.96 -17.38,-312.28 40.77,-219.19 206.73,-369.58 430.9,-390.5 80.57,363.12 174.04,794.35 249.91,1172.35 0.34,1.9 0.72,3.73 1.11,5.59 -366.86,116.82 -791.27,31.86 -1084.84,-217.25zm723.88 -3923.57c178.88,-241.09 565.2,-133.85 592.81,165.04 0,0 54.42,428.57 -318.79,852.96 -60.61,82.52 -189.64,208.77 -340.04,344.15l-44.91 -212.95c-3.23,-15.6 -5.36,-55.53 -7.83,-71.49 -39.67,-255.17 -46.34,-621.76 -22.25,-763.6 31.94,-187.85 141.01,-314.11 141.01,-314.11zm785.5 2734.91c-123.78,-95.99 -329.43,-135.57 -479.84,-142.91 -79.01,-3.84 -88.76,12.36 -127.74,-45.03 -36.19,-53.27 -37.22,-180.09 -50.49,-244.13 -33.65,-162.23 -67.35,-324.45 -101,-486.68 357.08,-220.52 624.71,-581.78 731.91,-987.53 107.24,-405.76 52.87,-851.83 -148.65,-1219.94 -64.23,-117.49 -166.94,-239.95 -300.53,-232.34 -99.98,5.71 -180.03,83.29 -240.98,162.76 -193.21,251.75 -294.36,565.85 -324.95,881.86 -30.57,315.62 6.17,634.67 67.19,946.12 5.82,29.67 11.77,61.23 1.89,89.74 -10.7,30.81 -37.89,52.87 -63.84,72.65 -376.33,290.67 -781.4,583.49 -980.4,1015.22 -118.09,256.22 -153.47,549.76 -99.62,826.72 55.5,285.31 212.28,558.35 457.85,713.88 160.87,101.92 350.17,149.26 538.25,179.23 238.1,37.95 484.32,50.12 718.27,-8.11 26.93,142.34 49.82,285.44 67.46,429.23 13.96,113.43 28.07,229 33.24,343.95 1.67,36.73 -1.26,72.55 -1.26,109.06 -7.37,75.03 -36.69,149.07 -77.08,212.32 -17.98,28.13 -38.64,54.59 -61.61,78.9 -69.51,73.58 -157.05,128.04 -249.38,168.42 -65.67,28.75 -136.51,46.32 -208.24,49.75 -36.05,1.7 -72.29,-0.16 -107.91,-5.97 -2.9,-0.47 -6.23,-1.07 -9.29,-1.57 142.56,-77.01 240.56,-225.96 240.56,-399.37 0,-251.66 -204,-455.64 -455.65,-455.64 -251.64,0 -455.64,203.98 -455.64,455.64 0,76.29 20.52,147.1 53.67,210.26l-2.64 -0.8c6.43,12.4 14.11,23.16 21.11,34.84 2.83,4.44 5.18,9.16 8.14,13.46 238.75,377.12 762.33,356.47 762.33,356.47 63.78,2.96 131.43,-10.68 192.66,-26.39 136.85,-35.1 265.31,-103.71 364.42,-205.12 47.3,-48.41 87.49,-103.55 120.2,-162.76 26.84,-48.56 50.58,-99.41 63.12,-153.67 17.42,-75.33 11.9,-152.31 4.61,-228.51 -16.89,-176.82 -49.67,-351.72 -84.58,-526.38 -8.29,-41.25 -16.55,-82.56 -24.79,-123.85 -14.76,-73.78 -29.52,-147.54 -44.26,-221.32 -0.73,-3.73 -1.49,-7.46 -2.26,-11.19 0,0 438.39,-127.84 529.73,-511.43 0,0 173.53,-602.76 -273.98,-949.84z"/>
 </g>
</svg>
