<?xml version="1.0" encoding="UTF-8"?>
<!DOCTYPE svg PUBLIC "-//W3C//DTD SVG 1.1//EN" "http://www.w3.org/Graphics/SVG/1.1/DTD/svg11.dtd">
<!-- Creator: CorelDRAW -->
<svg xmlns="http://www.w3.org/2000/svg" xml:space="preserve" width="42.3332mm" height="76.1998mm" version="1.1" style="shape-rendering:geometricPrecision; text-rendering:geometricPrecision; image-rendering:optimizeQuality; fill-rule:evenodd; clip-rule:evenodd"
viewBox="0 0 4233.32 7619.98"
 xmlns:xlink="http://www.w3.org/1999/xlink"
 xmlns:xodm="http://www.corel.com/coreldraw/odm/2003">
 <defs>
  <style type="text/css">
   <![CDATA[
    .str0 {stroke:#FEFEFE;stroke-width:20;stroke-miterlimit:22.9256}
    .fil0 {fill:black;fill-rule:nonzero}
   ]]>
  </style>
 </defs>
 <g id="Capa_x0020_1">
  <metadata id="CorelCorpID_0Corel-Layer"/>
  <path class="fil0 str0" d="M2282.87 4155.14l-378.01 103.22 71.51 -793.69 378.01 -102.78 -71.51 793.25zm551.68 -887.69c4.64,-0.89 8.09,-6.59 8.09,-13.18l0 -204.69c0,-7.91 -4.91,-14.06 -10.47,-13.17l-293.24 59.74 41.43 -459.54c0.74,-7.99 -3.6,-15.11 -9.18,-15.11l-141.91 0c-4.67,0 -8.6,5.01 -9.21,11.64l-44.48 493.75 -378.01 102.78 53.45 -593.06c0.7,-7.99 -3.61,-15.11 -9.22,-15.11l-141.91 0c-4.67,0 -8.6,5.01 -9.18,11.64l-56.53 626.84 -435.42 81.7c-4.65,0.87 -8.09,6.58 -8.09,13.17l0 204.24c0,7.91 4.91,14.51 10.46,13.19l411.85 -76.87 -71.5 793.27 -342.72 64.12c-4.65,0.87 -8.09,6.59 -8.09,13.17l0 204.25c0,8.35 4.91,14.5 10.46,13.17l319.14 -59.29 -41.39 459.45c-0.73,7.92 3.61,14.92 9.18,14.92l141.91 0c4.67,0 8.6,-4.81 9.22,-11.4l44.47 -493.71 378.01 -102.79 -53.44 592.98c-0.73,7.92 3.6,14.92 9.18,14.92l141.94 0c4.64,0 8.58,-4.81 9.18,-11.4l56.5 -627.24 409.52 -81.26c4.64,-0.87 8.09,-6.59 8.09,-13.18l0 -204.24c0,-8.35 -4.91,-14.51 -10.47,-13.62l-385.94 77.31 71.51 -793.26 316.81 -64.13z"/>
 </g>
</svg>
