<?xml version="1.0" encoding="UTF-8"?>
<!DOCTYPE svg PUBLIC "-//W3C//DTD SVG 1.1//EN" "http://www.w3.org/Graphics/SVG/1.1/DTD/svg11.dtd">
<!-- Creator: CorelDRAW -->
<svg xmlns="http://www.w3.org/2000/svg" xml:space="preserve" width="42.3332mm" height="76.1998mm" version="1.1" style="shape-rendering:geometricPrecision; text-rendering:geometricPrecision; image-rendering:optimizeQuality; fill-rule:evenodd; clip-rule:evenodd"
viewBox="0 0 4233.32 7619.98"
 xmlns:xlink="http://www.w3.org/1999/xlink"
 xmlns:xodm="http://www.corel.com/coreldraw/odm/2003">
 <defs>
  <style type="text/css">
   <![CDATA[
    .str0 {stroke:#2B2A29;stroke-width:20;stroke-miterlimit:22.9256}
    .fil0 {fill:black;fill-rule:nonzero}
   ]]>
  </style>
 </defs>
 <g id="Capa_x0020_1">
  <metadata id="CorelCorpID_0Corel-Layer"/>
  <path class="fil0 str0" d="M2398 3572.47c0,4.74 -8.89,458.62 -581.16,819.55l-0.3 -799.21c77.4,-137.05 274.79,-261.2 443.73,-233.38 104.91,17.29 144.9,117.03 137.73,213.04zm-110.54 -351.45c-174.16,-28.49 -348.47,42.4 -470.99,151.63l-0.55 -1283.79c0,-12.11 -8.78,-21.95 -19.58,-21.95l-94.55 0c-10.88,0 -19.64,9.94 -19.57,22.16l-0.59 2447.12c-1.44,4.07 -0.04,10.87 -0.04,15.26 -0.03,5.44 -0.03,10.86 -0.07,16.64 0,5.08 0,9.82 0,14.91 0.04,3.07 0.37,6.12 0.63,9.17 0.22,2.71 -0.3,4.06 2.63,4.4 12.06,1.03 24.15,-8.47 34.25,-13.57 23.16,-11.19 47.21,-20.69 70.36,-31.87 48.42,-23.42 93.56,-52.58 138.84,-82.1 26.92,-17.3 52.3,-36.63 78.67,-54.61 16.58,-12.55 33.27,-25.12 49.58,-37.99 38.84,-30.53 76.28,-62.76 112.05,-96.35 32.73,-30.86 64.07,-63.09 93.74,-96.34 27.15,-30.53 52.9,-62.08 77.06,-94.63 22.05,-29.53 42.76,-60.07 62.03,-91.27 17.39,-28.48 33.63,-57.32 48.57,-86.5 13.32,-26.46 25.64,-52.92 36.81,-80.04 9.77,-23.76 18.69,-47.84 26.63,-71.93 6.74,-20.68 12.81,-41.39 18.09,-62.42 4.26,-16.96 8.04,-33.92 11.21,-50.87 2.34,-12.55 4.33,-25.45 5.89,-38 0.96,-8.15 1.81,-15.95 2.29,-23.75 0.11,-2.38 0.07,-4.76 0.26,-6.78 14.02,-181.83 -94.48,-328.37 -263.65,-356.53z"/>
 </g>
</svg>
